<svg xmlns="http://www.w3.org/2000/svg" viewBox="0 0 48 48">
  <path d="M6 22L24 8l18 14v16a2 2 0 0 1-2 2H8a2 2 0 0 1-2-2V22z" fill="#2563EB" opacity="0.2"/>
  <path d="M24 8 6 22v16a2 2 0 0 0 2 2h32a2 2 0 0 0 2-2V22L24 8Z" stroke="#2563EB" stroke-width="2.5" fill="none"/>
  <path d="M16 34h16V24H16v10Z" stroke="#059669" stroke-width="2" fill="none"/>
  <circle cx="20" cy="28" r="1.5" fill="#059669"/>
  <circle cx="28" cy="30.5" r="1.5" fill="#059669"/>
  <path d="M20 28c2.5-2.4 4.5-1.4 6.2.2 1 .9 1.7 1.4 1.8 2.3" stroke="#059669" stroke-width="1.75" fill="none"/>
</svg>
